<svg width="1102" height="456" xmlns="http://www.w3.org/2000/svg" xmlns:xlink="http://www.w3.org/1999/xlink"><defs><path id="a" d="M0 0h1113v455.184H0z"/><linearGradient x1="51.451%" y1="11.017%" x2="50%" y2="55.889%" id="b"><stop stop-color="#FFF" offset="0%"/><stop stop-color="#DADCFB" offset="100%"/></linearGradient><linearGradient x1="50%" y1="196.874%" x2="50%" y2="-24.2%" id="d"><stop stop-color="#F300FC" offset="0%"/><stop stop-color="#00F0FF" offset="100%"/></linearGradient><path d="M80.292 42.673C80.292 20.572 62.358.35 40.177.35 17.997.351.063 20.571.063 42.673.063 76.059 40.177 99.1 40.177 99.1s40.115-23.747 40.115-56.428z" id="e"/><filter x="-1.2%" y="-1%" width="102.5%" height="102%" filterUnits="objectBoundingBox" id="f"><feGaussianBlur stdDeviation=".5" in="SourceAlpha" result="shadowBlurInner1"/><feOffset dy="1" in="shadowBlurInner1" result="shadowOffsetInner1"/><feComposite in="shadowOffsetInner1" in2="SourceAlpha" operator="arithmetic" k2="-1" k3="1" result="shadowInnerInner1"/><feColorMatrix values="0 0 0 0 1 0 0 0 0 1 0 0 0 0 1 0 0 0 0.263445426 0" in="shadowInnerInner1"/></filter><ellipse id="g" cx="25.046" cy="24.955" rx="25.046" ry="24.955"/><linearGradient x1="67.415%" y1="5.507%" x2="56.63%" y2="214.676%" id="i"><stop stop-color="#F300FC" offset="0%"/><stop stop-color="#270B9F" offset="100%"/></linearGradient><path d="M80.292 42.673C80.292 20.572 62.358.35 40.177.35 17.997.351.063 20.571.063 42.673.063 76.059 40.177 99.1 40.177 99.1s40.115-23.747 40.115-56.428z" id="j"/><filter x="-1.2%" y="-1%" width="102.5%" height="102%" filterUnits="objectBoundingBox" id="k"><feGaussianBlur stdDeviation=".5" in="SourceAlpha" result="shadowBlurInner1"/><feOffset dy="1" in="shadowBlurInner1" result="shadowOffsetInner1"/><feComposite in="shadowOffsetInner1" in2="SourceAlpha" operator="arithmetic" k2="-1" k3="1" result="shadowInnerInner1"/><feColorMatrix values="0 0 0 0 1 0 0 0 0 1 0 0 0 0 1 0 0 0 0.263445426 0" in="shadowInnerInner1"/></filter><ellipse id="l" cx="25.046" cy="24.955" rx="25.046" ry="24.955"/><path d="M40.177 99.101s40.115-23.747 40.115-56.428C80.292 20.572 62.358.35 40.177.35 17.997.351.063 20.571.063 42.673.063 76.059 40.177 99.1 40.177 99.1z" id="n"/><filter x="-1.2%" y="-1%" width="102.5%" height="102%" filterUnits="objectBoundingBox" id="o"><feGaussianBlur stdDeviation=".5" in="SourceAlpha" result="shadowBlurInner1"/><feOffset dy="1" in="shadowBlurInner1" result="shadowOffsetInner1"/><feComposite in="shadowOffsetInner1" in2="SourceAlpha" operator="arithmetic" k2="-1" k3="1" result="shadowInnerInner1"/><feColorMatrix values="0 0 0 0 1 0 0 0 0 1 0 0 0 0 1 0 0 0 0.263445426 0" in="shadowInnerInner1"/></filter><ellipse id="p" cx="25.046" cy="24.955" rx="25.046" ry="24.955"/><path d="M40.177 99.101s40.115-23.747 40.115-56.428C80.292 20.572 62.358.35 40.177.35 17.997.351.063 20.571.063 42.673.063 76.059 40.177 99.1 40.177 99.1z" id="r"/><filter x="-1.2%" y="-1%" width="102.5%" height="102%" filterUnits="objectBoundingBox" id="s"><feGaussianBlur stdDeviation=".5" in="SourceAlpha" result="shadowBlurInner1"/><feOffset dy="1" in="shadowBlurInner1" result="shadowOffsetInner1"/><feComposite in="shadowOffsetInner1" in2="SourceAlpha" operator="arithmetic" k2="-1" k3="1" result="shadowInnerInner1"/><feColorMatrix values="0 0 0 0 1 0 0 0 0 1 0 0 0 0 1 0 0 0 0.263445426 0" in="shadowInnerInner1"/></filter><ellipse id="t" cx="25.046" cy="24.955" rx="25.046" ry="24.955"/><path d="M40.177 99.101s40.115-23.747 40.115-56.428C80.292 20.572 62.358.35 40.177.35 17.997.351.063 20.571.063 42.673.063 76.059 40.177 99.1 40.177 99.1z" id="v"/><filter x="-1.2%" y="-1%" width="102.5%" height="102%" filterUnits="objectBoundingBox" id="w"><feGaussianBlur stdDeviation=".5" in="SourceAlpha" result="shadowBlurInner1"/><feOffset dy="1" in="shadowBlurInner1" result="shadowOffsetInner1"/><feComposite in="shadowOffsetInner1" in2="SourceAlpha" operator="arithmetic" k2="-1" k3="1" result="shadowInnerInner1"/><feColorMatrix values="0 0 0 0 1 0 0 0 0 1 0 0 0 0 1 0 0 0 0.263445426 0" in="shadowInnerInner1"/></filter><ellipse id="x" cx="25.046" cy="24.955" rx="25.046" ry="24.955"/><path d="M40.177 99.101s40.115-23.747 40.115-56.428C80.292 20.572 62.358.35 40.177.35 17.997.351.063 20.571.063 42.673.063 76.059 40.177 99.1 40.177 99.1z" id="z"/><filter x="-1.2%" y="-1%" width="102.5%" height="102%" filterUnits="objectBoundingBox" id="A"><feGaussianBlur stdDeviation=".5" in="SourceAlpha" result="shadowBlurInner1"/><feOffset dy="1" in="shadowBlurInner1" result="shadowOffsetInner1"/><feComposite in="shadowOffsetInner1" in2="SourceAlpha" operator="arithmetic" k2="-1" k3="1" result="shadowInnerInner1"/><feColorMatrix values="0 0 0 0 1 0 0 0 0 1 0 0 0 0 1 0 0 0 0.263445426 0" in="shadowInnerInner1"/></filter><ellipse id="B" cx="25.046" cy="24.955" rx="25.046" ry="24.955"/><path d="M40.177 99.101s40.115-23.747 40.115-56.428C80.292 20.572 62.358.35 40.177.35 17.997.351.063 20.571.063 42.673.063 76.059 40.177 99.1 40.177 99.1z" id="D"/><filter x="-1.2%" y="-1%" width="102.5%" height="102%" filterUnits="objectBoundingBox" id="E"><feGaussianBlur stdDeviation=".5" in="SourceAlpha" result="shadowBlurInner1"/><feOffset dy="1" in="shadowBlurInner1" result="shadowOffsetInner1"/><feComposite in="shadowOffsetInner1" in2="SourceAlpha" operator="arithmetic" k2="-1" k3="1" result="shadowInnerInner1"/><feColorMatrix values="0 0 0 0 1 0 0 0 0 1 0 0 0 0 1 0 0 0 0.263445426 0" in="shadowInnerInner1"/></filter><ellipse id="F" cx="25.046" cy="24.955" rx="25.046" ry="24.955"/><path d="M40.177 99.101s40.115-23.747 40.115-56.428C80.292 20.572 62.358.35 40.177.35 17.997.351.063 20.571.063 42.673.063 76.059 40.177 99.1 40.177 99.1z" id="H"/><filter x="-1.2%" y="-1%" width="102.5%" height="102%" filterUnits="objectBoundingBox" id="I"><feGaussianBlur stdDeviation=".5" in="SourceAlpha" result="shadowBlurInner1"/><feOffset dy="1" in="shadowBlurInner1" result="shadowOffsetInner1"/><feComposite in="shadowOffsetInner1" in2="SourceAlpha" operator="arithmetic" k2="-1" k3="1" result="shadowInnerInner1"/><feColorMatrix values="0 0 0 0 1 0 0 0 0 1 0 0 0 0 1 0 0 0 0.263445426 0" in="shadowInnerInner1"/></filter><ellipse id="J" cx="25.046" cy="24.955" rx="25.046" ry="24.955"/><path d="M40.177 99.101s40.115-23.747 40.115-56.428C80.292 20.572 62.358.35 40.177.35 17.997.351.063 20.571.063 42.673.063 76.059 40.177 99.1 40.177 99.1z" id="L"/><filter x="-1.2%" y="-1%" width="102.5%" height="102%" filterUnits="objectBoundingBox" id="M"><feGaussianBlur stdDeviation=".5" in="SourceAlpha" result="shadowBlurInner1"/><feOffset dy="1" in="shadowBlurInner1" result="shadowOffsetInner1"/><feComposite in="shadowOffsetInner1" in2="SourceAlpha" operator="arithmetic" k2="-1" k3="1" result="shadowInnerInner1"/><feColorMatrix values="0 0 0 0 1 0 0 0 0 1 0 0 0 0 1 0 0 0 0.263445426 0" in="shadowInnerInner1"/></filter><ellipse id="N" cx="25.046" cy="24.955" rx="25.046" ry="24.955"/><path d="M40.177 99.101s40.115-23.747 40.115-56.428C80.292 20.572 62.358.35 40.177.35 17.997.351.063 20.571.063 42.673.063 76.059 40.177 99.1 40.177 99.1z" id="P"/><filter x="-1.2%" y="-1%" width="102.5%" height="102%" filterUnits="objectBoundingBox" id="Q"><feGaussianBlur stdDeviation=".5" in="SourceAlpha" result="shadowBlurInner1"/><feOffset dy="1" in="shadowBlurInner1" result="shadowOffsetInner1"/><feComposite in="shadowOffsetInner1" in2="SourceAlpha" operator="arithmetic" k2="-1" k3="1" result="shadowInnerInner1"/><feColorMatrix values="0 0 0 0 1 0 0 0 0 1 0 0 0 0 1 0 0 0 0.263445426 0" in="shadowInnerInner1"/></filter><ellipse id="R" cx="25.046" cy="24.955" rx="25.046" ry="24.955"/></defs><g transform="translate(-11)" fill="none" fill-rule="evenodd"><mask id="c" fill="#fff"><use xlink:href="#a"/></mask><path d="M11 70.256c1.93-1.649 4.409-2.522 6.078-4.55.841-1.021 1.887-1.563 3.262-1.412.946.103 1.926.133 2.864-.002 2.96-.428 5.835-1.265 8.877-1.38 1.294-.05 2.609-1.402 3.78-2.339.936-.748 1.669-1.763 2.722-2.91-2.274-.505-3.982-.653-5.514 1.073-1.111 1.251-2.15 1.251-3.57.515-.582-.302-1.182-.566-1.756-.882-2.156-1.184-2.41-3.1-.866-5.033 1.202-1.505 2.914-2.083 4.445-2.997.296-.176.81-.226 1.117-.086 1.82.834 3.779.997 5.686 1.43 1.507.34 2.925 1.099 4.785 1.83l2.34-2.797c-.914-1.34-1.867-2.74-2.823-4.136-.704-1.03-.561-1.69.627-2.243 2.534-1.179 5.008-2.847 7.667-3.285 2.577-.425 4.978-1.918 7.704-1.447 2.267.392 4.343-.382 6.177-1.568.98-.634 1.895-.812 2.94-.82 1.912-.014 3.825.018 5.737-.016 1.212-.022 2.445.217 3.529-.784.408-.378 1.263-.315 1.916-.33 2.008-.049 4.017-.013 6.024-.056 1.212-.027 2.465.237 3.52-.804.34-.335 1.074-.291 1.634-.336 1.489-.117 3.059.285 4.338-.986.27-.268.917-.182 1.39-.183 6.79-.015 13.58-.022 20.37-.013.457 0 .913.145 1.56.255-.26 2.517 1.26 4.024 2.833 5.425 1.62 1.443 2.815 3.306 5.036 4.161 2.543.98 4.852 1.012 7.353.075 1.91-.714 3.927-1.125 5.888-1.698 1.782-.52 3.554-1.076 5.33-1.617.794-.24 1.574-.618 2.382-.696 1.858-.178 3.648-.047 5.509-.962 1.415-.696 3.38-.17 5.095-.273 1.662-.1 3.442.484 4.92-.913.233-.22 1.072-.16 1.316.092 1.032 1.068 2.307.707 3.508.864.91.12 1.795.434 2.692.656.723.179 1.44.449 2.173.503 1.863.14 3.78-.292 5.486 1.02.442.34 1.301.13 1.969.132 4.016.017 8.033.064 12.049.011 1.47-.02 2.602.351 3.24 1.817l-.582 1.232c1.773 1.314 3.677 1.893 5.834 1.726.606-.047 1.252.305 1.864.519.437.153.887.604 1.267.538 2.57-.447 4.042 1.242 5.573 2.863.182.193.418.333.731.578 1.294-3.186 3.688-5.109 6.53-6.505.452-.221 1.187-.3 1.593-.074 2.269 1.273 4.351 1.119 6.713.003 1.26-.596 3.263-.668 4.446-.03 1.678.904 3.301.997 4.946.812 2.598-.293 4.698 1.19 7.052 1.727 1.601.367 3.066 1.318 4.647 1.825 1.552.497 4.86-1.323 5.745-3.011.264-.506.333-1.21.72-1.544 2.631-2.273 3.754-5.482 5.17-8.515 1.058-2.272 3.2-2.792 5.281-3.348 1.148-.308 2.337-.451 3.735-.71 1.06.622 1.453 1.791 1.361 3.31-.105 1.737-.024 3.487-.024 5.278 1.666.489 3.444.125 4.253 2.076-.503 1.113-1.316 2.385-.514 3.794 2.177-.686 4.338-1.219 6.384-2.048 2.741-1.111 5.843-1.476 8.018-3.839 1.289-1.4 2.814-.712 4.39-.625.811 2.274.582 4.122-1.276 5.797-2.806 2.53-5.835 4.247-9.644 4.832-2.41.371-4.685 1.747-6.991 2.744-1.57.68-3 1.617-4.085 3.006-.888 1.139-1.994 1.423-3.528.947-.891-1.135-.933-3.658-3.661-3.083-.072.76-.308 1.546-.184 2.267.327 1.9-.42 3.611-1.416 4.874-.83 1.056-2.505 1.914-3.831 1.952-3.108.089-5.776 1.336-8.554 2.442-4.259 1.694-8.42 3.578-12.432 5.832-3.853 2.164-7.101 5.052-9.984 8.403-.335.39-.494 1.05-.517 1.595-.064 1.568.044 3.144-.03 4.712-.067 1.395.755 2.164 1.707 2.823 2.005 1.388 4.054 2.706 6.08 4.06.314.21.573.606.903.673 2.376.48 4.768.871 7.145 1.344.897.18 1.77.501 2.653.755.451.13.923.409 1.353.354 2.276-.292 4.26.525 6.243 1.599.532.897.236 1.647-.546 2.239-1.304.987-1.527 2.354-1.478 3.898.062 1.955.015 3.914.015 5.741 2.068 1.579 4.178 2.117 6.539 1.906 1.234-.11 2.308-.94 2.345-1.792.095-2.178 1.675-3.85 1.464-6.156-.245-2.691.567-3.127 3.1-3.935 2.113-.674 4.059-1.897 6.083-2.868.42-.202.881-.57 1.281-.518 2.036.266 3.608-.864 5.388-1.698.12-1.623.503-3.238-.712-4.719-.31-.376-.287-1.13-.252-1.699.17-2.77-.621-5.62.974-8.284.482-.805.195-2.096.26-3.15 1.526-1.02 2.787-.468 4.263.677 1.318-1.488 2.56-2.966 3.888-4.358.583-.61 1.368-1.013 2.01-1.573.457-.4.97-.836 1.215-1.373 1.145-2.515 3.344-2.57 5.568-1.749.691.256 1.386.721 2.076.713 3-.034 5.656 1.091 8.26 2.4.524.264 1.002.76 1.33 1.265.82 1.262 1.848 2.505 2.217 3.915.383 1.466.077 3.119.1 4.69.006.48.104.958.158 1.423 2.473 1.476 4.434-.123 6.406-1.057 2.534-1.201 4.899-2.788 7.454-3.93 1.048-.47 2.455-.467 3.607-.224 1.477.311 1.917 1.903 1.279 3.411a7.412 7.412 0 0 0-.507 1.92c-.086.676-.018 1.372-.027 2.06-.032 2.396.27 4.843-1.381 7.113 1.948.804 3.354 1.67 3.936 3.709.487 1.702 1.624 3.207 2.6 5.04.214-.454.428-.813.556-1.202.394-1.201 1.295-1.271 2.014-.626 1.574 1.41 3.029 2.97 4.46 4.537.595.65.511 1.445-.129 2.103-2.958 3.044-5.65 6.456-8.97 9.002-2.449 1.877-5.427 3.414-8.915 2.95-2.163-.287-4.392-.095-6.59-.038-1.672.042-3.428-.431-4.922.928-.341.312-1.105.165-1.675.174-1.625.027-3.258.13-4.876.013-3.101-.223-5.86.838-8.646 2.027-1.62.69-3.37 1.069-5.076 1.534-1.012.276-1.025.228-2.531 2.203 5.725.34 11.218-.16 16.96.186l.215 2.79c-2.49 1.48-4.643 3.043-6.679 4.912 2.385.124 4.168 1.798 6.568 1.743 2.445-.056 4.64-.545 6.767-1.664 1.782-.936 2.058-.897 3.077.408.887 1.136.897 2.648-.193 3.65-.745.685-1.758 1.052-2.611 1.624-2.033 1.362-4.198 2.107-6.669 1.864-2.123-.209-3.794.94-5.306 2.256-1.304 1.135-2.354 2.6-3.725 3.628-1.677 1.258-3.32 2.994-5.958 2.02-.25-1.606-.602-3.116.48-4.702.467-.685.306-1.824.429-2.748-.48-.214-.785-.482-.974-.413-3.045 1.111-6.089 2.233-9.1 3.435-.764.304-1.485.817-2.11 1.37-1.49 1.321-2.731 2.827-4.617 3.785-1.585.805-2.91 2.343-2.727 4.734.153 2.017-1.017 2.987-2.95 3.113-.191.012-.39.038-.574 0-3.153-.65-5.677 1.087-8.185 2.513-.907.516-1.417 1.939-1.88 3.048-.326.778-.657 1.215-1.45 1.583-.906.422-1.6 1.314-2.407 1.977-1.642 1.348-3.256 2.644-4.492 4.507-1.158 1.747-2.986 3.008-4.346 4.636-.898 1.074-1.616 2.36-2.19 3.655-1.064 2.402-2.765 4.046-5.012 5.247-1.399.748-2.724 1.663-4.019 2.594-2.829 2.034-5.585 4.177-8.437 6.176-1.607 1.127-3.475 1.89-4.992 3.12-1.78 1.444-3.346 3.178-4.908 4.88-.32.35-.284 1.112-.29 1.686-.026 2.16-.056 4.323.031 6.48.03.729.4 1.444.622 2.162.028.089.143.152.161.238.492 2.43 1.216 4.84 1.407 7.293.309 3.958-2.46 6.299-5.004 8.617-.293.267-1.394.064-1.747-.302-.633-.654-1.013-1.58-1.446-2.423-1.411-2.75-2.402-5.615-2.16-8.798.03-.39-.053-.795.01-1.177.59-3.6-2.04-5.151-4.218-6.969-.42-.35-1.153-.372-1.475-.771-1.15-1.425-2.703-1.427-4.279-1.838-2.011-.525-3.94-1.05-6.041-1.063-1.665-.01-2.795.638-3.35 2.139-.715 1.936-2.179 3.247-3.652 4.37-1.605 1.224-3.625.78-5.445.148-.784-.27-1.485-.793-2.328-1.26l-.385-2.61c-1.099-.482-2.043-.331-3.213.116-1.978.757-3.885 1.867-6.106 1.888-.627.007-1.266.279-1.872.507-3.621 1.363-6.506 4.065-9.979 5.771-2.369 1.163-3.684 3.768-3.85 6.72-.047.82-.422 1.634-.726 2.42-1.132 2.923-2.545 5.723-2.763 8.983-.099 1.484-.51 3.14-1.319 4.33-1.059 1.558-.873 3.137-.922 4.766-.035 1.176.005 2.356.015 3.534.034 4.164 2.523 6.708 5.615 8.783 1.005.675 2.175 1.108 3.303 1.568.847.344 1.73.627 2.624.802.646.126 1.356-.08 2 .052 3.474.715 6.224-1.24 9.004-2.737 1.587-.855 2.24-2.84 2.608-4.629.967-4.721 3.812-6.978 8.304-6.803 1.809.07 3.125 1.165 4.567 2.02 1.107.658 1.219 1.818.92 2.858-.467 1.628-1.496 3.133-1.733 4.775-.422 2.921-2.496 5.138-2.875 8.065-.153 1.181-.8 2.402-1.522 3.37-.823 1.106-.666 2.137-.502 3.39.447.078.934.327 1.143.174 2.233-1.636 4.793-1.166 7.178-.946 1.905.176 3.735 1.059 5.714 1.301.992.122 1.908 1.206 1.888 2.616-.046 3.24.474 6.605-.225 9.682-.543 2.387-.942 4.689-.928 7.102.006 1.057-.188 2.163.715 3.037.24.232.357.717.347 1.08-.114 4.344 3.245 5.94 5.951 8.107 1.482 1.187 2.914 2.5 4.101 3.982.464.58.195 1.78.292 3.154-.746-.482-1.036-.827-1.34-.84-2.38-.104-3.957-1.586-5.508-3.193-.36-.373-.98-.687-1.477-.681-2.974.033-5.207-1.4-7.142-3.541-.381-.422-.814-.952-1.309-1.078-2.16-.55-2.889-1.98-2.802-4.13.024-.632-.301-1.286-.5-1.918-.169-.542-.574-1.078-.55-1.601.101-2.177-.4-3.862-2.734-4.457-.283-.072-.582-.508-.682-.837-.576-1.904-2.255-2.839-3.453-4.186-.336-.377-.971-.531-1.498-.657-.454-.107-.951-.027-1.43-.032-6.349-.063-6.534-.311-12.205-4.183-2.73-1.865-5.153-4.143-7.949-5.87-1.71-1.056-3.687-.853-5.47-.088-2.768 1.185-5.48 1.038-8.226.062-.351-.125-.697-.491-1.015-.456-3.066.34-5.369-1.619-7.85-2.856-2.585-1.29-4.969-2.978-7.341-4.727-2.674-1.97-4.927-4.762-8.386-5.664-1.147-.3-1.918-1.501-1.834-3.003.084-1.468-.193-2.985.058-4.41.668-3.778-1.316-6.703-2.685-9.852-1.56-3.592-4.245-6.54-5.545-10.279a1.075 1.075 0 0 0-.348-.456c-3.305-2.607-4.074-6.847-6.221-10.198-.407-.635-.719-1.345-1.003-2.051-.749-1.86-1.615-3.61-1.566-5.796.032-1.42-.832-2.9-1.442-4.285-.69-1.567-1.546-3.058-2.402-4.725h-2.723c.026 2.567-.774 4.968.725 7.399.77 1.25.695 3.075 1.521 4.258 1.543 2.205 2.716 4.39 2.277 7.194 1.375 1.652.496 3.92 1.243 5.53.991 2.137.444 4.602 1.849 6.571.585.821.295 1.17-1.535 2.902-.403-1.186-.616-2.4-1.188-3.396-2.42-4.206-4.824-8.415-6.73-12.9-.293-.687-.689-1.478-.6-2.16.286-2.186-.551-4.065-1.557-5.765-.659-1.114-.791-2.15-.796-3.314-.014-2.946-.064-5.894.009-8.838.031-1.282-.295-2.295-1.25-3.105-1.73-1.47-3.251-3.11-5.221-4.395-2.76-1.797-5.03-4.448-5.051-8.295-.004-.634-.36-1.265-.549-1.9-.189-.635-.427-1.263-.541-1.913-.101-.573.103-1.246-.108-1.75-2.171-5.189-.552-10.624-1.017-15.92-.13-1.482.945-2.321 2.157-2.757 1.28-.46 1.746-1.528 2.517-2.513 2.182-2.788 3.473-6.11 5.568-8.98 2.007-2.749 4.848-4.865 6.148-8.199.329-.843 1.322-1.39 1.913-2.152 1.233-1.59 2.157-3.281 2.376-5.416.153-1.478.866-2.896 1.34-4.378.711-.096 1.273-.137 1.82-.25 2.154-.447 2.692-1.606 1.815-3.678-.256-.604-.372-1.298-.421-1.962-.113-1.533.25-3.168-1.016-4.418.35-3.533-1.863-6.721-1.309-10.283.06-.386-.068-.897.131-1.15 1.554-1.977.95-4.299 1.011-6.49.085-3.042-.044-6.09.041-9.131.059-2.096-.465-3.595-2.655-4.193-1.24-.339-2.403-.972-3.958-1.62l-.637-2.785c-3.221.06-6.103-1.964-9.412-1.403-.43.074-1.064-.03-1.344-.319-.948-.979-2.108-.766-3.233-.807-1.133-.041-2.184-.062-3.242-.812-.68-.48-1.832-.259-2.772-.35-1.845-.182-3.76.444-5.507-.955-.52-.418-1.874-.103-2.669.272-2.451 1.157-4.79 2.568-7.233 3.745-.806.388-1.8.367-2.775.545l-.966-2.412c-1.758.282-3.396.9-4.438 2.237-1.805 2.316-4.526 2.52-6.86 3.61-.75.35-1.545.592-2.308.912-1.91.802-3.746 1.866-5.948 1.456-2.051-.383-3.578.96-5.212 1.842-.756.407-1.468.755-2.016-.003-.526-.727-.151-1.457.494-2.056.481-.447.864-1.006 1.316-1.545-1.021-1.798-2.892-2.106-4.437-2.89-1.067-.541-2.242-.856-3.368-1.272v-8.25zM279.62 567c-.361-.379-.658-.89-1.094-1.114-3.093-1.592-6.517-2.766-8.508-5.913-2.076-3.28-4.907-6.117-6.144-9.883-.952-2.9-3.074-5.015-4.25-7.74-.926-2.143-.853-3.599.445-5.335.848-1.133 1.644-2.362 2.176-3.672.44-1.083.252-2.176-.7-3.204-1.57-1.695-2.64-3.722-2.587-6.216.01-.542-.2-1.151-.473-1.63-1.65-2.894-3.153-5.924-5.656-8.17-1.41-1.263-2.015-2.685-1.869-4.61.134-1.755.039-3.532.002-5.3-.026-1.244.18-2.49-.753-3.628-.406-.498-.316-1.49-.326-2.258-.044-3.24-.011-6.481-.069-9.72-.03-1.622.352-3.309-.894-4.766-.35-.41-.18-1.323-.188-2.007-.03-2.455-.025-4.91-.052-7.365-.012-1.158-.273-2.195-.7-3.332-.773-2.067-.846-4.444.125-6.534.474-1.019.57-1.647-.001-2.645-.441-.774-.437-1.845-.534-2.793-.166-1.613-.08-3.144-.845-4.787-.697-1.499-.747-3.59.33-5.346.3-.486.456-1.527.176-1.845-1.053-1.196-.79-2.574-.8-3.91-.034-4.125-.026-8.249-.014-12.373.004-1.156-.173-2.344.79-3.312.279-.282.306-.912.314-1.385.033-1.957.014-3.916.014-6.01-2.612-.572-2.74-3.112-3.908-5.062-2.946.067-5.328-1.313-7.777-3.158-1.669-1.256-3.12-2.791-4.821-3.923-2.884-1.919-5.084-4.612-7.76-6.683-1.568-1.214-3.072-2.48-4.586-3.766-3.068-2.605-5.042-5.964-6.523-9.648-.951-2.364-1.565-4.87-2.426-7.276-.416-1.161-.848-2.433-1.636-3.307-1.387-1.539-2.079-3.403-2.987-5.19-.771-1.519-1.581-3.16-2.787-4.27-2.494-2.299-3.935-5.433-6.286-7.808-.876-.885-1.587-1.782-.441-2.983.131-.137.323-.332.307-.48-.252-2.4 1.436-3.647 2.784-5.127 1.192-1.308 1.327-3.777.016-4.986-1.783-1.642-1.597-3.64-1.432-5.666.049-.596.499-1.254.94-1.698 1.29-1.3 2.23-2.814 3.13-4.413 1.351-2.397 2.928-4.658 4.372-7 .445-.724.768-1.526 1.148-2.292 1.394-2.812 3.584-5.154 4.563-8.216.143-.446.608-.861.586-1.272-.074-1.43.603-2.423 1.545-3.3.944-.88 1.171-1.789.118-2.72-1.246-1.1-1.76-2.436-1.655-4.14.038-.597-.402-1.238-.667-1.839-.844-1.913-.558-3.818.899-5.338 2-2.088 4.076-4.1 6.038-6.224.757-.818 1.212-1.927 1.95-2.77.66-.757 1.435-1.497 2.306-1.944 1.146-.59 2.47-.802 3.651-1.333 1.073-.482 1.898-1.287 1.907-2.658.003-.389-.05-.902.157-1.142.606-.699 1.257-1.628 2.034-1.806.57-.13 1.548.636 2.016 1.262.67.897 1.05 2.027 1.53 3.07.12.26.05.701.226.833 2.48 1.853 2.203 4.535 2.114 7.179-.013.373.13.753.221 1.125.016.061.14.095.268.176 1.358-1.519 1.544-3.538 2.199-5.366.668-1.863 1.577-3.634 2.63-6.01.859-.46 2.095-.248 3.198 1.034.64.743 1.51.967 2.42 1.3 2.136.782 4.575.894 6.286 2.847.449.511 1.56.55 2.37.56 4.098.051 8.196.022 12.294.021h3.024c.352 1.766.352 1.766-.342 3.232.47.44.896 1.173 1.451 1.299 1.434.324 2.197 1.44 3.188 2.327 1.643 1.47 3.437 2.567 5.753 2.654.957.036 1.89.7 2.838 1.063 2.236.85 4.164 2.146 5.791 3.966 1.414 1.58 2.86 3.146 4.429 4.559 1.68 1.513 3.488 2.88 5.307 4.214.41.301 1.093.265 1.652.282 1.238.039 2.478-.006 3.717.021.565.013 1.275-.086 1.667.215 3.735 2.863 7.903 5.305 9.67 10.168.392 1.078.788 2.178 1.353 3.162 2.2 3.824.701 6.56-1.212 9.287-.641.913-1.483 1.678-2.527 2.837.878.048 1.487.273 1.71.062 1.364-1.284 3.006-.976 4.594-1.013.572-.013 1.154.062 1.714-.021 2.457-.368 4.611.512 6.747 1.595.728.368 1.574.765 2.342.719 1.52-.092 2.446.727 3.474 1.654a109.22 109.22 0 0 0 6.086 5.097c.465.361 1.252.37 1.895.384 2.286.048 4.58.14 6.86.006 3.186-.188 6.08.31 8.85 2.175 1.743 1.173 3.941 1.608 5.88 2.502.913.421 1.814 1.024 2.512 1.755 1.568 1.639 3.347 2.747 5.578 3.05.367.05.831.096 1.062.336 1.526 1.581 3.072 3.113 5.09 4.045.317.145.737.56.735.848-.018 2.514.253 5.12-.308 7.514-.532 2.269-1.942 4.325-3.01 6.452-.254.505-.67.928-1.029 1.373-1.252 1.553-3.019 2.64-3.703 4.734-.176.536-1.202.776-1.537.975-.87 2.503-1.661 4.733-2.412 6.975a7.212 7.212 0 0 0-.329 1.7c-.086 1.058.067 2.123-.786 3.028-.33.35-.32 1.091-.371 1.663-.096 1.056.046 2.104-.762 3.042-.37.43-.347 1.288-.365 1.955-.052 1.865-.015 3.732-.044 5.597-.016 1.06-.016 2.049-.7 3.055-.476.7-.334 1.865-.417 2.827-.172 1.998.474 4.14-1.024 5.903-.105.123-.114.387-.083.57.58 3.458-1.593 6.05-2.646 8.994-.667 1.865-1.52 3.69-1.927 5.614-.324 1.533-1.04 2.338-2.34 2.988-3.094 1.546-6.266 2.774-9.58 3.767-1.44.432-2.942.567-4.283 1.08-1.427.547-2.82.84-4.29 1.145-2.21.458-4.155 1.751-5.54 3.689-.238.332-.3.98-.163 1.379.521 1.514 1.18 2.977 1.738 4.48.159.428.322.99.185 1.38-.717 2.062-1.383 4.168-2.355 6.104-.85 1.69-1.656 3.487-3.215 4.706-.807.63-1.13 1.472-1.106 2.553.035 1.538.3 3.163-.969 4.432-.164.163-.192.583-.135.85.526 2.426-.995 3.858-2.469 5.227-1.989 1.845-3.377 4.023-4.585 6.496-.846 1.73-2.43 3.3-4.052 4.323-.993.625-1.521 1.248-1.824 2.264-2.778-1.47-5.613-.651-8.344-.868-.396 1.844-.063 2.652 1.342 3.362 1.003.507 2.1.839 3.048 1.43.696.433 1.473 1.064 1.735 1.79.19.522-.507 1.327-.643 2.039-.385 1.996-1.994 3.013-3.159 4.39-1.098 1.298-2.566 2.232-3.086 4.1-.206.735-1.36 1.214-2.12 1.749-.459.321-.993.524-1.578.824-1.886-.514-3.452-2.603-6.137-1.718-.065.75-.188 1.59-.2 2.433-.028 2.06.057 4.126-.022 6.185-.062 1.617-1.135 2.724-2.67 2.859-2.218.194-4.397.171-5.867-2.386-.99 1.514-.406 2.863-.631 4.32 1.849.101 2.367 1.506 2.916 2.808.696 1.649 2.006 3.1 1.678 5.103-.092.57-.088 1.232-.38 1.676-1.1 1.667-2.314 3.254-3.464 4.887-.268.38-.533.8-.66 1.243-.306 1.07-.53 2.166-.858 3.546.969 0 1.899-.011 2.829.002 2.867.039 3.641.847 3.694 3.895.03 1.767-.033 3.538.042 5.302.08 1.923-.404 3.426-1.644 5.046-2.333 3.048-2.974 7.238.001 11.822.203.312.291.703.433 1.057h-9.152zM721.878 42.184c-2.223-.727-3.593-2.09-4.466-4.027-.193-.428-.39-.956-.743-1.191-2.248-1.5-2.63-4.108-3.624-6.325-.865-1.927.531-3.88 2.619-4.187 3.978-.584 7.412.881 10.752 2.774.322.183.598.505.811.822.95 1.414 1.986 2.788 2.77 4.296.881 1.694 1.555 3.47 1.333 5.52-.177 1.645-.092 3.329-.015 4.99.075 1.62 1.128 2.627 2.71 2.77.096.01.192.006.288.003 1.68-.05 3.55.423 4.638-1.465.952-1.654-.613-2.814-1.178-3.92-1.913-3.74-3.667-7.487-4.45-11.662-.08-.424-.47-.785-.868-1.416.657-.096 1.246-.368 1.476-.18.712.583 1.343 1.297 1.906 2.038 2.236 2.941 3.226 6.711 6.006 9.31 2.105 1.97 3.125 1.772 4.345-1.02.227-.522.52-1.013.755-1.466-1-2.542-2.23-5.024-2.945-7.652-.817-3 .625-5.3 3.715-4.902 2.827.365 5.28-.953 7.824-1.866.7-.251 1.456-.431 2.194-.456 2.009-.066 4.022.008 6.032-.05 1.674-.049 3.472.472 4.9-.965.113-.115.363-.11.552-.123 4.293-.27 7.562-2.49 10.496-5.526 1.022-1.059 2.44-1.717 3.381-2.357 1.24.317 2.136.766 3.013.728 2.323-.098 4.794.694 6.906-.998.13-.103.372-.082.56-.083 4.406-.014 8.811-.055 13.216.006.575.008 1.273.416 1.694.858 1.985 2.078 4.306 1.777 6.58.912 2.056-.782 5.06-.855 7.11.04.937.407 2.027.44 2.982.815.861.337 1.634.91 2.456 1.383.567 1.671-.707 2.448-1.747 2.868-1.478.597-2.294 1.465-2.834 2.97-.332.927-1.233 1.64-2.112 2.743.98.13 1.677.303 2.375.305 4.31.011 8.624.107 12.926-.08 2.191-.097 4.24.302 5.942 1.484 2.584 1.795 5.316 2.342 8.328 2.115 1.143-.086 2.313-.14 3.443.013 2.579.352 4.688-1.218 7.066-1.659.902-.167 1.776-.67 2.668-.689 3.734-.076 7.474.088 11.203-.073 1.69-.072 2.76 1.166 4.231 1.484.703.152 1.389.592 1.98 1.041 2.566 1.952 5.45 2.456 8.57 2.28.871-.049 1.767.474 2.661.687.73.173 1.474.37 2.215.388 2.298.054 4.597.004 6.895.042 1.307.022 2.527.021 3.82.796 1.026.616 2.6.227 3.915.407 3.852.526 6.803-1.123 9.257-3.95.547-.63.957-1.406 1.33-2.167 1.18-2.41 2.15-2.673 4.055-.915.742.683 1.49.995 2.498 1.162 3.326.547 6.638 1.362 9.204 3.769 1.02.956 2.063.866 3.18.869 8.715.022 17.435.22 26.142-.052 4.061-.126 7.599.86 11.047 2.814a6.05 6.05 0 0 0 2.636.755c2.486.106 4.98-.006 7.468.072 1.952.06 3.855-.201 5.815.886 1.272.707 3.185.195 4.81.258 1.401.054 2.866-.275 4.072.903.28.273.907.216 1.378.237 1.597.071 3.066.258 4.642.953 2.086.92 4.534.965 6.814 1.451.8.171 1.561.535 2.344.812.503-.991 1.152-1.954 1.503-3.02.957-2.907 3.34-2.876 5.59-2.104.434.15.853.708 1.218.653 3.572-.54 6.802 1.56 10.339 1.343.866-.054 1.767.46 2.647.727.271.082.549.337.789.297 3.475-.58 6.62 1.314 10.046 1.361 1.99.028 4.085.656 5.925 1.491 2.203 1 4.49 1.916 6.698 2.772 2.215.858 5.047.92 7.497-.323 1.46-.74 2.917-.718 4.373-.016.338.162.67.582.967.547 2.526-.305 4.775.889 7.164 1.298 2.04.35 3.991.67 4.937 3.05.298.746 1.448 1.119 2.165 1.716 1.023.853 2.072 1.692 2.971 2.67.29.315.14 1.052.206 1.763-2.115.202-4.055.836-5.892-.529-.286-.212-.712-.312-1.076-.319-2.595-.043-4.885-1.089-7.185-2.158-.494-.23-1.117-.182-1.683-.242-.57-.061-1.292.113-1.688-.18-2.272-1.681-4.743-.848-7.322-.897-.351 2.805-2.294 3.557-4.683 4.064 1.454.751 2.887 1.544 4.362 2.245 2.715 1.29 4.864 3.591 7.802 4.483 1.06.32 2.072.799 3.491 1.356.32.35.325 1.039-.278 1.736-1.283 1.483-2.584 2.902-4.826 2.44-2.417-.496-4.152.599-5.72 2.405-1.771 2.038-3.719 3.916-5.625 5.828-1.26 1.264-1.287 1.235-3.815.894.95-1.66 1.113-3.392.633-5.466-.651.107-1.438-.007-1.793.34-1.13 1.107-2.32 1.705-3.902 2.111-1.721.443-3.395 1.496-4.695 3.035-1.217 1.44-.974 2.994-.535 4.4.38 1.219 1.584 1.914 3.014 1.684 1.37-.22 2.384.422 3.28 1.38.922.985 1.864 1.952 2.779 2.944.322.349.778.71.86 1.129.488 2.537 1.335 4.938 2.333 7.304.206.488.238 1.33-.04 1.707-1.555 2.103-.837 4.506-1.008 6.784-.058.779-.006 1.566-.004 2.35.004 3.303.003 3.303-1.687 6.813-1.022.445-1.598-.249-2.218-.876a459.623 459.623 0 0 0-4.908-4.907c-1.42-1.393-2.55-3.115-4.611-3.77-.602-.19-1.19-1.045-1.418-1.724-.632-1.885-1.071-3.837-1.585-5.752-4.662-.854-6.73-4.555-8.803-8.252-.135-4.132-.958-8.45 2.453-11.762 1.29-1.253 1.302-2.926.735-4.037-.882-1.727-.871-3.516-1.19-5.39-2.22-.658-3.976-.383-5.634 1.488-2.334 2.636-5.38 2.491-7.93-.054-.533-.532-1.073-1.055-1.723-1.691-.986.974-1.836 1.873-2.75 2.702-.92.836-1.195 1.83-1.311 3.082-.267 2.872-1.363 5.535-2.7 8.04-.783 1.465-1.573 1.534-3.054.714-1.926-1.067-3.871-2.013-6.16-1.71-.279.037-.65.078-.846-.068-2.219-1.665-4.775-.872-7.192-1.07-1.117-.092-2.272.183-3.247-.78-.343-.339-1.067-.303-1.624-.379-.472-.064-1.095.15-1.412-.09-2.15-1.629-4.16-.9-6.351-.023-.887.355-1.742.588-2.43 1.292-1.958 1.996-3.932 3.976-5.897 5.964-.135.137-.24.311-.389.43-1.765 1.401-.818 3.452-1.227 5.176-.403 1.693-1.813 3.11-.393 5.126.689.978.51 2.595.735 3.99 1.752.514 3.495 1.25 5.3 1.497 1.882.258 3.823.041 5.739.038 1.915-.002 3.856.206 5.74-.043 2.67-.353 4.967.924 7.437 1.41.572.112 1.184.709 1.518 1.25 1.046 1.688 1.808 3.58 2.984 5.158 1.205 1.617 2.757 2.964 4.177 4.41 2.885 2.94 3.302 5.345 1.637 9.358-.18.434-.27.938-.278 1.411-.027 1.959-.037 3.918.016 5.874.015.556.11 1.24.437 1.629.884 1.05.51 1.765-.11 2.826-1.288 2.206-2.299 4.582-3.397 6.902-.202.425-.313.905-.404 1.372-.492 2.517-1.14 3.123-3.563 3.168-1.914.035-3.832-.018-5.746.024-2.455.055-3.42.885-3.297 3.314.138 2.725-.925 4.849-2.531 6.824-1.483 1.823-1.375 5.149.166 6.893 1.986 2.248 4.593 3.604 7.003 5.249 1.708 1.166 3.538 2.202 5.045 3.6 1.137 1.056 1.849 2.591 2.741 3.9-1.28 2.222-2.357 4.342-3.67 6.296-1.261 1.875-3.15 3.106-5.248 3.758-2.435.756-5.871-2.053-5.942-4.671-.026-.979-.097-1.969.008-2.935.296-2.699-1.287-4.11-3.324-5.188-1.659-.878-3.37-1.651-5.053-2.485-1.57-.778-2.232-2.1-1.94-3.826.386-2.278-.936-3.624-2.384-4.943-.677-.615-1.354-.618-2.064-.08-1.73 1.31-3.46 2.617-5.298 4.007-.84-.558-1.258-1.512-1.902-2.256-1.974-2.278-2.455-4.88-2.227-7.847-2.107-.2-3.43.906-4.74 1.863-2.524 1.845-3.691 4.806-5.476 7.261-.388.534-.629 1.213-1.092 1.652-1.476 1.396-2.573 3.015-3.24 5.167.77.083 1.494.22 2.22.23 2.298.027 4.596.006 6.895.006.575 0 1.22-.168 1.712.04 2.459 1.047 4.567.097 6.7-1.006.359-.186.889-.027 1.41-.027.128.516.374.929.285 1.243-.631 2.256-.812 4.704-2.523 6.524-2.622 2.79-2.57 4.246-.181 7.456a96.481 96.481 0 0 0 10.443 11.837c1.463 1.412 2.24 3.253 2.684 5.272.347 1.573.708 3.186 1.37 4.635 1.515 3.315 1.3 6.473-.197 9.713-.91 1.967-1.585 4.05-2.375 6.076-.138.354-.253.765-.505 1.02a22.48 22.48 0 0 0-3.602 4.784c-1.073 1.889-3.109 2.778-5.027 3.554-2.32.94-4.735 1.636-7.108 2.435-1.236.416-2.531.704-3.685 1.286-.71.36-1.26 1.118-1.777 1.783-.397.511-.494 1.328-.958 1.713-2.46 2.037-3.289 5.107-4.816 7.728-1.382 2.372-2.582 4.859-4.014 7.198-.511.834-1.284 1.847-2.762 1.028-.64-2.365-.296-4.915-.236-7.415.048-2.016-.475-3.768-1.242-5.553-.71-1.654-5.26-4.036-7.13-2.965-1.446.827-2.723 2.159-3.738 3.528-1.287 1.735-2.27 3.715-3.317 5.627-1.027 1.874-.98 2.682.477 4.099 1.696 1.65 3.046 3.727 5.454 4.556.647.222 1.18.994 1.618 1.62 1.844 2.64 3.687 5.286 5.427 7.998 1.839 2.867 3.165 6.065 5.27 8.761 1.038 1.33.987 2.956.392 4.15-1.262 2.538-2.16 5.358-4.433 7.29-.476.404-.673 1.133-1.084 1.64-.901 1.11-1.665 2.646-2.837 3.143-1.706.723-2.754 2.036-3.98 3.202-2.367 2.249-3.245 2.304-6.262.912-2.006-.926-3.52-2.101-4.328-4.263-.284-.76-1.098-1.306-1.643-1.973-1.749-2.138-4.32-3.558-5.306-6.377-.096-.271-.578-.456-.916-.574-1.273-.446-2.074-1.3-2.385-2.648-.063-.274-.176-.623-.38-.76-.675-.456-1.539-1.293-2.077-1.126-.767.235-1.418 1.16-1.904 1.93-.27.428-.123 1.144-.126 1.73-.012 2.643.027 5.288-.029 7.93-.039 1.808.348 3.643-.907 5.341-.481.653-.126 1.91-.297 2.866-.07.387-.534.99-.806.984-.46-.01-1.124-.312-1.327-.698-1.518-2.892-2.896-5.785-2.503-9.295.281-2.513-.035-5.091.103-7.63.187-3.454-.628-6.61-2.054-9.712-.743-1.616-1.084-3.425-1.58-5.061-2.203-.673-3.886-.467-5.403 1.198-1.135 1.245-1.8 1.2-2.774-.161-.975-1.364-1.972-2.815-1.987-4.647-.01-1.46-.002-2.922-.002-4.42-2.684-1.149-5.274-2.267-6.853-4.659-1.351-2.044-2.418-4.296-3.51-6.508-.934-1.894-1.873-3.732-3.424-5.228-1.78-1.718-3.697-2.95-6.228-2.95-.465 0-.988-.045-1.387-.26-3.611-1.953-8.169-.827-10.834 2.086-2.799 3.058-5.843 5.881-8.66 8.924-1.92 2.072-3.999 3.751-6.68 4.7-3.112 1.101-5.093 3.441-6.353 6.529-.863 2.112-2.085 4.079-2.856 6.22-.86 2.386-2.135 4.714-1.784 7.423.037.29-.082.655.05.87 1.954 3.151.687 6.663 1.114 9.979.948 7.361-2.996 9.46-7.81 12.19-1.205.682-2.503 2.022-4.258 1.06-.705-1.023-1.486-2.083-2.183-3.2-.341-.546-.745-1.2-.736-1.797.022-1.517-.402-2.808-1.145-4.104-.808-1.406-1.294-2.906-1.325-4.647-.02-1.147-.784-2.34-1.399-3.402-1.062-1.838-1.957-3.64-2.026-5.888-.035-1.158-.81-2.314-1.337-3.43-1.211-2.57-2.633-4.984-3.404-7.826-.734-2.71-2.406-5.155-3.673-7.712-1.146-2.314-1.02-4.739-.132-7.003.82-2.093 1.158-4.008-.67-5.532-1.234-1.029-.78-2.51-1.425-3.92-1.431.955-2.733 1.846-4.06 2.697-.465.297-.97.628-1.493.716-2.618.443-5.194-1.404-6.797-3.613-1.838-2.53-4.118-4.823-6.554-6.764-1.508-1.202-3.108-2.09-3.78-4.06-.651-1.901-2.71-1.93-4.007-2.987-.571-.466-1.304-.736-1.984-1.048-1.892-.866-3.748-1.567-5.953-1.492-5.262.18-10.533.075-15.8.024-1.673-.016-3.477.464-4.9-.982-.112-.114-.374-.14-.552-.11-2.112.348-3.63-.636-5.026-2.13-.482-.516-1.447-.55-1.955-1.053-1.055-1.047-1.953-2.261-3.356-3.933-.542 0-1.779.1-2.992-.03-.995-.107-1.959-.502-2.943-.738-.638-.154-1.286-.329-1.936-.363-1.146-.06-2.324-.18-3.442.013-2.046.354-3.737-.593-5.38-1.455-1.564-.82-2.918-2.058-4.358-3.122-1.517-1.122-2.881-2.683-4.573-3.286-2.771-.989-3.44-3.321-4.427-5.575-.067-.153-.233-.26-.354-.388-.912 2.058-.84 6.104.064 7.958 1.664 3.41 3.232 6.85 4.014 10.627.323 1.555.766 3.257 1.687 4.47 1.508 1.985 3.369 3.727 5.261 5.35.592.508 2.068.747 2.62.352 2.369-1.693 5.28-1.938 7.71-3.345.779-.452 1.642-1.143 1.973-1.939 1.058-2.557 3.347-3.928 5.062-5.838.281-.314 1.027-.191 1.716-.294 1.32 8.78 6.457 14.356 13.865 18.076.665 2.178.164 3.932-1.57 5.463-1.51 1.333-2.742 2.996-4.247 4.337-1.97 1.756-3.37 3.84-4.352 6.297-.31.774-.936 1.45-1.524 2.065-2.2 2.298-4.333 4.687-6.708 6.784-2.327 2.055-4.94 3.754-7.748 5.107-4.974 2.396-10.22 4.188-14.98 7.056-1.524.919-2.998 1.927-4.536 2.822-1.705.992-3.373 2.151-5.503 1.906-.275-.032-.662-.035-.835.128-1.777 1.673-3.44.91-5.17-.114-.966-.572-2.1-.853-3.046-1.451-.615-.39-1.383-1.064-1.471-1.7-.498-3.593-2.954-6.68-2.546-10.503.055-.52-.233-1.113-.465-1.625-1.544-3.393-3.531-6.5-5.73-9.494-1.167-1.59-2.026-3.413-3.067-5.105a7.355 7.355 0 0 0-1.258-1.562c-4.173-3.83-6.152-9.102-8.802-13.932-.25-3.398-2.56-5.92-3.65-8.96-.097-.27-.2-.558-.373-.777-1.778-2.235-3.737-4.344-5.31-6.72-1.383-2.09-2.745-4.142-4.636-5.78-.137-.12-.31-.197-.125-.083l-5.318.991c1.966 4.136 4.068 8.176 5.815 12.37 1.157 2.774 2.606 5.455 3.22 8.464.148.72.752 1.327 1.006 2.038 1.543 4.299 3.279 8.504 5.56 12.458.004 2.49 1.803 3.861 3.136 5.605 1.189 1.557 1.825 3.546 2.77 5.308.49.914 1.051 1.808 1.704 2.604.733.891 1.584 1.686 2.42 2.482 3.539 3.367 6.146 7.476 9.058 11.365 1.91 2.552 2.554 5.485 4.002 8.12a.988.988 0 0 1 .112.57c-.297 2.061.774 3.71 1.61 5.594 1.046.196 2.06.331 3.16-.436.636-.444 1.616-.498 2.443-.507 4.98-.055 9.964-.165 14.939-.005 2.275.074 4.417-.287 6.189-1.543 1.578-1.12 3.04-.68 4.746-.8.28 2.22.835 4.19-.474 6.07a2.103 2.103 0 0 0-.341 1.09c-.087 4.074-2.229 7.43-3.673 11.026-.207.513-.684.93-1.085 1.34-1.94 1.987-3.285 4.387-4.624 6.802-.734 1.326-1.807 2.382-2.526 3.792-1.067 2.09-2.795 3.826-4.214 5.734-.449.603-.802 1.28-1.216 1.91-.202.308-.385.716-.678.86-3.292 1.6-5.306 4.662-7.735 7.207-1.332 1.393-2.105 3.344-3.13 5.045-.147.245-.264.517-.445.733-2.452 2.925-5.243 5.624-7.277 8.826-1.901 2.995-4.86 5.106-6.272 8.46-.394.938-1.457 1.57-1.9 2.5-1.588 3.335-1.744 6.627-.418 10.275.745 2.047 1.728 4.2 1.591 6.675-.095 1.713.515 3.652 1.355 5.176.724 1.313.773 2.546.847 3.89.107 1.902-.423 3.896.956 5.618.295.369.14 1.137.146 1.722.023 2.154.04 4.308.032 6.462-.004 1.061.122 2.138-.765 3.018-.288.284-.412.926-.349 1.364.308 2.127-.93 3.384-2.21 4.772-2.55 2.763-5.569 4.793-8.694 6.797-1.961 1.256-3.673 3.162-4.986 5.133-.74 1.113-1.482 2.188-2.352 3.201-1.25 1.456-2.172 3.098-2.512 5.05-.095.553-.306 1.105-.563 1.604-.809 1.574-.833 3.1-.022 4.697.334.655.565 1.428.607 2.161.118 2.01-.262 4.06 1.02 5.903.313.45.047 1.32.047 2.148-4.09 1.165-6.705 4.269-9.392 7.256-.415.46-.593 1.15-.852 1.747-.638 1.47-1.048 3.102-1.937 4.387-1.264 1.823-2.059 3.756-2.867 5.814-.712 1.813-2.647 3.154-4.134 4.605-.73.713-1.774 1.09-2.492 1.811-4.622 4.644-9.226 9.307-13.758 14.042-1.21 1.263-2.428 2.192-4.217 1.854-1.867-.353-3.394.727-4.738 1.58-2.55 1.618-5.166 2.242-8.079 2.003-.762-.062-1.534.014-2.297-.041-1.304-.094-2.349.242-3.342 1.238-1.485 1.487-2.006 1.288-4.022.454-1.885-.78-3.102-1.907-3.839-3.891-.656-1.765-1.48-3.404-1.978-5.295-.665-2.522-.565-5.17-1.415-7.57-.854-2.414-2.08-4.718-3.375-6.93-.666-1.136-1.805-1.996-2.782-2.926-2.545-2.422-4.156-5.202-3.803-8.947.081-.879-.44-1.811-.655-2.726-.174-.743-.397-1.492-.433-2.247-.069-1.465-.103-2.942-.006-4.404.216-3.27-.83-6.167-2.119-9.09-1.063-2.412-1.617-5.052-2.556-7.529-.74-1.954-1.59-3.89-2.627-5.694-1.416-2.463-3.053-4.793-4.598-7.178-.206-.32-.622-.633-.613-.94.084-2.96-.84-5.984.64-8.871.508-.992.568-2.214.996-3.261 1.151-2.827 3.322-5.05 4.394-7.976 1.096-2.988 2.325-5.91 1.823-9.153-.199-1.286-.745-2.609-1.454-3.696-.915-1.402-.882-2.493-.168-4.012.526-1.12.757-2.885.242-3.894-.67-1.31-.77-2.543-.913-3.883-.057-.53-.306-1.161-.677-1.517-1.86-1.78-2.24-4.43-3.7-6.434-.103-.143-.122-.376-.125-.567-.041-3.789-2.318-6.504-4.061-9.574-1.582-2.788-3.902-4.7-5.94-6.955-1.565-1.733-2.357-4.814-1.118-6.668 1.724-2.578 2.059-5.325 1.894-8.272-.022-.39-.057-.794.012-1.173.653-3.54-1.35-6.299-2.64-9.25-.25-.57-.924-1.307-1.432-1.333-2.269-.116-4.136-1.934-6.57-1.39-2.71.607-4.287-1.202-5.393-3.328-1.198-2.304-2.583-4.016-5.438-3.747-1.023.096-2.022-.503-2.946-.667a23.488 23.488 0 0 0-7.339-.135c-2.162.31-4.306 1.166-6.31 2.109-3.141 1.48-6.673 1.527-9.803 3.166-1.35.706-3.399.788-4.946-.313-.959-.68-1.641-.68-2.498.162-2.069 2.028-4.518 2.999-7.452 2.828-1.366-.079-2.716-.037-4.162.505-1.12.418-2.823-.47-4.154-1.048-2.145-.93-4.214-2.05-6.277-3.165-.655-.355-1.23-.905-1.764-1.446-2.1-2.127-4.091-4.372-6.27-6.407-1.93-1.8-3.057-4.071-4.413-6.274-1.805-2.932-3.169-6.089-4.94-8.99-.974-1.6-2.486-3.048-4.407-3.996-1.552-.764-2.807-2.305-3.951-3.707-.455-.559-.293-1.67-.35-2.535-.135-2.092.09-4.108-.943-6.213-1.111-2.264-.076-4.815 1.186-6.878 1.456-2.381 2.285-4.795 2.098-7.623-.052-.786.457-1.607.69-2.418.54-1.898.717-3.779-.113-5.664-.3-.683-.554-1.43-.621-2.166-.14-1.526-.084-2.971-.885-4.478-.513-.968-.17-2.705.311-3.873 1.048-2.548 2.482-4.928 3.647-7.43.474-1.019.5-2.264 1.01-3.254 1.485-2.884 3.525-5.405 5.295-8.088 2.865-4.342 6.766-7.569 10.193-11.296 1.867-2.03 4.642-2.973 6.31-5.3.388-.539.98-.923 1.57-1.462-2.12-3.135-.655-5.692 1.04-8.228.524-.782.877-1.703 1.478-2.409.654-.768 1.409-1.578 2.29-1.991 3.574-1.678 6.484-4.138 9.329-8.888.39-.652 1.007-1.17 1.552-1.715 1.517-1.515 1.71-1.515 3.245-.138 1.826 1.639 3.272 1.818 5.394.673.826-.446 1.622-.988 2.496-1.29.555-.191 1.247-.109 1.848.011.805.161 1.573.658 2.37.692 2.39.103 4.79.118 7.18.021.782-.032 1.712-.314 2.29-.82 2.19-1.917 4.603-2.884 7.523-2.713 1.47.085 3.035.374 4.367-.864.397-.368 1.28-.238 1.943-.25 2.106-.036 4.214-.02 6.32-.048 1.033-.014 2.108.182 2.961-.738.226-.243.706-.364 1.056-.34 3.115.203 5.806-1.155 8.617-2.213 1.604-.604 3.414-.554 4.667 1.14.393.533.84 1.026 1.282 1.563-.985 1.915-2.274 3.678-2.798 5.654-.507 1.91-.403 4.06-.189 6.064.07.66 1.29 1.644 2.039 1.698 2.9.207 3.94 2.324 5.09 4.663.462.053 1.032.232 1.572.162 5.527-.723 9.718 2.293 13.956 5.172 3.747 2.545 7.736 3.909 12.464 2.697.092-1.58.51-3.093 1.813-4.287.47-.432.636-1.37.683-2.095.1-1.535.03-3.082.03-4.372 1.275-.878 1.908-.467 2.588.238 1.318 1.363 2.51 3.008 4.743 2.779.16-.017.382.115.501.249 1.123 1.255 2.6 1.66 4.097 2.28 1.59.66 3.07.79 4.66.866.286.014.647-.061.845.086 2.398 1.78 5.146.946 7.754 1.102 1.431.086 2.873-.03 4.308.015 1.49.047 3.03-.316 4.37.88.408.364 1.283.234 1.945.24 3.544.031 7.088-.001 10.63.057 2.782.044 4.791-1.029 6.05-3.674.934-1.967 2.156-3.79 3.19-5.71.306-.566.537-1.236.584-1.875.087-1.169-.01-2.333.913-3.275.224-.229.24-.734.243-1.114.022-2.045.01-4.092.01-6.352-.879-.115-1.601-.277-2.327-.293-1.914-.041-3.835.063-5.744-.047-1.872-.107-3.718.201-5.64-.41-1.563-.498-3.306.804-5.073.464a4.505 4.505 0 0 0-1.718-.004c-2.658.543-5.256-.371-7.371-1.47-2.69-1.399-5.44-3.16-7.289-5.822-.393-.565-.42-1.474-.43-2.226-.042-3.321-.018-6.642-.018-10.152-3.663-1.09-5.7 2.303-8.749 2.807l-3.405-1.661-1.153 2.366c.182 3.357 3.206 4.19 5.456 6.2l-3.16 2.232-1.882 5.114c-3.99.474-4.71-.205-6.766-3.527-1.71-2.763-3.316-5.536-4.68-8.49-.34-.737-1.472-1.05-2.024-1.738-1.282-1.598-1.481-3.566-1.2-5.514.321-2.223-1.008-3.455-2.409-4.627-.454-.38-1.251-.554-1.854-.483-1.632.191-2.71-.616-3.721-1.738-.839-.931-1.746-1.8-2.61-2.709-2.048-2.157-4.544-3.655-7.064-5.143-1.37-.81-2.457-2.004-3.962-2.725-1.157-.554-2.096-.64-3.352-.459-.442 1.99.7 3.44 1.711 4.621 2.195 2.565 4.57 5.003 7.098 7.221 1.382 1.212 3.158 2.061 4.885 2.719 1.698.646 2.872 1.83 4.078 3.055 1.015 1.033 2.052 2.05 2.982 3.159.4.477.726 1.151.788 1.767.175 1.749-.656 2.228-2.253 1.43-.55-.275-1.135-.478-1.73-.724-.252.477-.518.74-.49.966.308 2.494-.836 4.255-2.595 5.799-1.155 1.013-2.183 2.18-3.263 3.281-2.55 2.6-4.527 2.575-6.999-.104-.307-.334-.58-.7-.981-1.186 1.204-.81 2.37-.54 3.45-.51 1.142.032 1.994-.32 2.79-1.156 1.254-1.321 2.61-2.543 4.108-3.985-2.897-2.961-5.41-5.902-8.308-8.37-2.256-1.922-5.09-3.032-7.877-4.11-1.835-.709-3.73-1.521-4.873-3.291-.922-1.427-1.644-2.989-2.575-4.714-1.703-.687-4.026.608-6.08-1.405-.14 2-.255 3.68-.397 5.732-3.09.088-6.158.932-9.144-.552-.897-.445-1.603-.539-2.29.27-1.97 2.32-4.636 3.968-5.899 6.997-.75 1.797-2.827 2.187-4.468 2.76-.982.343-2.13.296-2.693 1.316-.683 1.234-1.213 2.563-1.746 3.877-.137.337-.094.783-.039 1.164.615 4.244-1.914 6.294-5.138 8.03-2.965 1.597-5.809 3.433-8.7 5.176-1.439.867-3.085.98-4.332.083-2.415-1.736-5.012-2.015-7.801-1.926-1.217.038-2.53.01-3.646-.41-2.246-.846-3.52-2.618-3.808-5.119-.072-.63-.61-1.196-.711-1.828-.147-.924-.472-2.171-.041-2.763.92-1.264.782-2.572.809-3.907.042-2.153.13-4.317-.019-6.46-.234-3.355.978-5.979 3.33-8.227.963-.92 1.702-2.084 2.543-3.138l.376.605c1.077.211 2.17.66 3.228.587 2.48-.171 4.61.61 6.704 1.838a18.892 18.892 0 0 0 3.83 1.703c1.934.612 3.388-.905 5.05-1.482.782-.272 1.474-.815 2.349-1.316.638-1.852-.52-4.205 1.118-6.037-1.438-1.898-2.79-3.854-4.33-5.64-.717-.83-1.797-1.333-2.717-1.977-.155-.108-.38-.14-.496-.276-.597-.704-1.847-1.269-1.285-2.349.434-.83 1.387-1.564 2.27-1.908.84-.327 1.891-.07 2.848-.113.444-.02.885-.145 1.974-.335l-4.744-2.447v-3.065c2.163-.017 4.147-.024 6.13-.051 1.128-.016 2.302.217 3.222-.806.218-.242.738-.385 1.06-.31 2.125.498 3.71-1.286 5.728-1.374.655-.029 1.641-.929 1.826-1.614.422-1.558 1.615-2.361 2.511-3.467 1.04-1.282 2.24-1.922 3.948-1.882 1.891.044 2.618-.794 2.98-2.768.396-2.164 1.999-3.796 4.04-4.235 1.817-.39 3.446-1.504 5.443-1.305.482.049 1.09-.685 1.562-1.144 1.242-1.208 2.402-2.507 3.668-3.687 1.44-1.34 1.836-1.19 2.734.806.075.168.23.3.41.527 1.531.114 3.01.34 4.564-.755.983-.694 2.59-.337 3.666-1.31.154-.14.692-.122.806.023 1.494 1.911 4.28-.014 5.71 2.047.963 1.387 2.384 1.465 3.857 1.302.372-.041.931-.058 1.07-.292 1.229-2.082 3.698-1.713 5.384-2.886.367-.255 1.223-.247 1.574.022 1.923 1.47 4.075.558 6.11.723.384.032.86-.354 1.199-.656 2.074-1.849 3.47-4.042 3.344-7.008-.032-.768.086-1.542.142-2.423 1.649-.479 3.102-.76 4.664.283.705.47 1.779.366 2.852.55.412-2.225.89-4.14-.283-6.084-.797-1.322-.543-2.783-.193-4.518 1 .081 2.151-.18 2.762.29 1.95 1.506 4.08.836 6.092.731 1.583-.083 2.537-1.611 3.339-2.9.541-.869-.67-2.534-1.96-2.702-.718-.093-1.686-.084-2.18.33-.945.793-1.942.704-2.976.72-1.915.028-3.844-.107-5.743.081-2.768.275-4.164-1.395-5.328-3.524-.183-.334-.183-.817-.427-1.063-1.13-1.135-.554-1.916.232-2.994 1.615-2.215 3.083-4.558 4.426-6.956.411-.735.218-1.824.314-2.88-1.982-.312-3.415-.144-5.143.613-2.628 1.152-4.766 3.012-7.241 4.349-1.407.76-2.165 2.302-2.697 4.177-.595 2.093-.846 4.092-.962 6.202-.091 1.655.172 3.086 1.535 4.156.92.72.99 1.543.285 2.52-.83 1.153-1.578 2.368-2.348 3.565-.204.316-.534.681-.507.997.162 1.934-1.2 2.91-2.243 4.175-2.31 2.802-5.2 4.711-8.413 6.168-.523.237-1.285.208-1.843.015-.872-.3-1.641-.903-2.5-1.271-2.195-.941-3.258-2.687-3.51-5.017-.205-1.89-1.627-2.877-2.944-3.695-2.229-1.383-4.663-2.418-6.992-3.638-.827-.434-1.65-.915-2.382-1.495-1.474-1.166-2.193-1.154-3.272.353-.38.53-.552 1.215-.908 2.034h-2.892c-.063-1.14-.146-2.181-.17-3.224-.03-1.273-.013-2.546-.012-3.819.005-3.956.007-3.956 1.648-7.882.312-.024.795-.22 1.026-.053 1.276.928 2.43 1.312 3.795.056.395-.363 1.29-.158 1.956-.214 2.062-.173 3.058-1.008 3.026-3.023-.027-1.736.561-2.975 1.818-4.045 2.018-1.719 3.392-4.222 6.099-5.124.488-.162.858-.756 1.237-1.192 2.094-2.413 4.792-3.97 7.48-5.542.163-.096.343-.171.487-.292 2.185-1.819 4.34-3.674 6.553-5.455a49.634 49.634 0 0 1 4.106-2.994 86.628 86.628 0 0 1 5.553-3.317c.713-.39 1.573-.688 2.371-.7 4.117-.06 8.236-.016 12.354-.003.381.002.874-.099 1.126.099 2.04 1.596 4.401.839 6.63 1.02 1.582.128 3.258-.334 4.628 1 .273.267.92.152 1.395.176 1.964.098 4.019-.356 5.756 1.074.186.154.57.138.841.088 3.652-.669 6.522 1.424 9.616 2.776 1.696.741 3.426 1.57 5.22 1.871 3.689.62 4.983 1.197 7.345 4.193-.258.485-.644.954-.77 1.486-.627 2.664-2.96 3.22-4.943 3.697-1.151.278-2.698-.607-3.909-1.27-2.647-1.448-5.186-1.405-7.786.023-.478.263-1.039.368-1.868.65 2.123 2.071 3.63 4.36 6.23 5.617 1.223.592 2.175 1.864 3.123 2.945 1.855 2.116 3.437 1.88 5.336.16a233.845 233.845 0 0 1 8.42-7.253c1.673-1.377 3.455-3.013 6.058-3.39 2.384-.345 4.575-1.988 6.89-2.965.941-.397 2.012-.463 2.974-.822 1.818-.676 3.808-1.018 5.137-2.73.218-.28.908-.287 1.364-.245 2.31.213 4.622-.476 6.95.915 1.29.771 3.395.76 4.934-.315.972-.68 1.655-.643 2.53.127.76.67 1.599.52 2.248-.32 1.825-2.363 4.546-3.352 7.003-4.73 1.581-.889 3.587-.495 4.96.83.832.805 1.621 1.656 2.47 2.441.41.38.869.834 1.375.953 2.272.538 4.484 1.21 6.585 2.276.475.241 1.128.143 1.7.151 1.436.022 2.885-.106 4.306.046 2.549.273 4.387-.696 5.779-3.132zm332.7 467.287l-.625-1.565c-1.343-.52-2.359-.999-3.424-1.293-.58-.16-1.322-.199-1.852.036-3.184 1.406-4.85 1.11-7.365-1.278-.88-.834-1.955-1.453-3.176-2.342 0-2.202-.05-4.649.02-7.094.039-1.351-.27-2.408-1.245-3.411-1.368-1.407-1.51-3.317-.616-5.067.52-1.018 1.14-1.984 1.614-3.022.177-.389.065-.916.106-1.846-2.834 2.409-5.88 3.586-8.71 5.166-1.627.91-3.012.8-4.845.52-.044-1.534-.179-2.982-.101-4.417.09-1.688-.53-2.88-2.031-3.474-2.102-.831-3.35-2.421-4.15-4.535-.252-.058-.624-.27-.78-.16-1.953 1.37-4.162 1.059-6.325 1.1-2.059.039-4.12-.298-6.08.975-.762.495-2.058.106-3.109.157-.76.037-1.817-.166-2.22.26-1.46 1.533-3.26 2.172-5.175 2.673-2.33.61-4.434 2.136-6.99 1.803-1.143-.148-2.033.251-2.78 1.143-.632.752-1.365 1.323-2.454 1.248-1.14-.078-2.29-.113-3.212.858-.218.23-.725.27-1.088.243-3.386-.259-6.493.66-9.464 2.242-.316.168-.749.133-1.129.147-1.136.04-2.237.628-3.21.745-2.627.318-4.961 1.84-7.685 1.641-2.828-.207-4.682-2.411-4.303-5.631l2.797-.575c.096-.294.308-.65.311-1.007.035-4.418.042-8.836.046-13.254 0-.39.072-.862-.108-1.157-1.88-3.087-.73-6.484-.974-9.733-.04-.526.296-1.09.492-1.625.163-.445.56-.882.537-1.304-.257-4.58 1.926-8.908 1.288-13.547-.132-.956.435-2.008.654-3.022.161-.75.344-1.503.407-2.264.191-2.327.81-3.037 2.97-3.544.695-.163 1.356-.557 1.984-.932 3.033-1.81 5.573-4.321 9.264-5.197 2.575-.612 5.27-1.1 7.757-2.15 1.814-.766 3.568-1.686 5.327-2.582 2.093-1.067 4.161-2.187 6.245-3.275 1.145-.598 1.83-1.4 2.164-2.805.66-2.787 1.91-5.35 3.885-7.736.672.611 1.276 1.062 1.76 1.623.606.707 1.24.79 2.159.349l.325-3.813c2.004-1.055 3.658-2.308 4.75-4.611 1.197-2.525 3.64-4.167 6.24-5.205.699-.278 1.955-.219 2.428.248 1.543 1.523 3.543 2.737 3.95 5.091l5.665 1.725c-1.086-1.686-1.706-2.794-.488-4.109.493-.531.366-1.666.56-2.742 3.101.095 4.601-2.49 6.57-4.368 1.04-.993 1.968-2.188 3.165-2.913 1.606-.971 3.367-1.584 5.381-1.405 2.378.21 4.785.107 7.18.08 2.42-.028 4.36.947 5.928 2.686-1.02 2.537-2.279 4.924-2.899 7.475-.426 1.753-1.203 4.378.803 5.393 2.958 1.497 4.44 4.817 7.63 5.87.413.137.752.6 1.06.967 1.357 1.615 3.088 1.301 4.753.88 1.151-.291 2.23-.887 3.604-1.455 1.656-3.48 3.456-7.267 5.264-11.05.204-.427.691-.86.645-1.24-.413-3.455 1.904-6.53 1.282-10.007-.08-.448.102-.946.155-1.354.82-.64 1.605-.687 2.096.082.864 1.353 1.912 2.732 2.256 4.248.464 2.051 1.39 3.718 2.538 5.377.805 1.162 1.793 2.408 2.009 3.734.308 1.891 1.244 3.393 1.968 5.044.264.6.418 1.282.474 1.94.129 1.528-.167 3.065.92 4.48.39.507.283 1.902-.137 2.477-1.068 1.462-.693 2.965-.668 4.59 1.286.603 2.615 1.098 3.813 1.82 1.838 1.11 2.309 3.157 3 5.043.835 2.286.877 4.897 2.864 6.725.727.67 1.002 1.827 1.623 2.651.817 1.083 1.743 1.89 3.295 2.005 1.135.083 2.215.942 3.685 1.626 0 1.085-.025 2.335.006 3.584.03 1.153-.2 2.386.833 3.287.128.113.221.347.223.525.012 3.333.213 6.686-.099 9.989-.114 1.21-.819 2.49-1.143 3.804-.403 1.633-1.275 3.141-1.89 4.726-.17.44-.28.987-.186 1.435.38 1.831-.868 3.153-1.437 4.634-.566 1.471-1.556 2.91-2.702 3.98-2.479 2.312-4.004 5.38-6.287 7.829-.442.475-.732 1.1-1.103 1.648-.424.63-.739 1.431-1.316 1.84-1.529 1.085-3.188 1.974-4.764 2.992-.634.408-1.227.907-1.766 1.443-1.503 1.498-3.006 3-4.43 4.576-.625.69-1.046 1.573-1.578 2.357-.322.472-.582 1.086-1.03 1.355-3.358 2.024-6.385 4.602-10.332 5.62-2.116.547-3.961 2.113-6.032 2.956-1.597.65-2.985 2.274-5.215 1.35zM493.242.143c-3.307 1.613-6.236 2.741-8.836 4.413-1.817 1.17-3.22 3.044-4.717 4.692-.33.363-.341 1.098-.37 1.668a32.847 32.847 0 0 0-.012 3.253c.07 1.504-.74 2.516-1.921 2.98-2.417.945-4.469 3.006-7.357 2.61-.38-.053-.853.354-1.232.623-.728.516-1.33.372-2.104-.028-2.416-1.251-3.38-.714-4.71 1.707-.896 1.63-1.17 3.247-1.087 5.03.041.886-.098 1.795.042 2.659.562 3.463-.744 5.965-3.315 8.164-1.397 1.194-2.617 2.054-4.512 1.939-1.953-.12-3.977-.41-5.775.964-.448.342-1.303.123-1.971.155-1.127.054-2.268-.139-3.237.82-.34.338-1.072.307-1.632.348-1.037.077-1.98.132-2.97.774-.79.513-2.027.47-3.047.397-3.013-.215-5.712.749-8.37 2.02-.5.24-1.095.357-1.648.366-1.236.018-2.225.84-2.404 1.77-.539 2.801-2.937 3.134-4.77 4.054-1.975.991-4.177 1.505-6.286 2.21-.358.12-.74.227-1.112.226-2.908-.005-5.38 1.48-7.954 2.547-.774.32-1.447 1.238-1.872 2.047-1.556 2.968-3.072 5.882-5.106 8.62-1.73 2.328-3.6 4.477-5.526 6.588-1.984 2.173-3.99 2.137-6.234.27-1.524-1.268-3.151-2.406-4.711-3.628-2.46-1.927-3.969-4.708-5.608-7.267-1.067-1.664-1.244-3.978-1.635-6.037-.233-1.22.177-2.585-.906-3.579a.39.39 0 0 1-.115-.261c.046-2.624-.983-4.852-2.232-7.069-.632-1.121.8-2.804 2.417-2.892 1.813-.097 3.647-.135 5.454.02 3.028.258 4.822-1.196 5.833-3.99.16-.442.485-.82.748-1.251-.273-.59-.779-1.187-.79-1.793-.054-2.778-1.04-5.24-2.155-7.689-.192-.424-.21-.957-.218-1.441-.069-3.951-2.513-6.45-5.325-8.436-1.09-.77-2.19-1.48-3.09-2.467-2.162-2.368-4.619-4.005-7.95-3.695-.375.035-.876.096-1.123-.108-1.745-1.442-3.792-1.073-5.755-1.045-2.177.031-3.095-1.676-4.19-3.091-.19-.246.167-1.413.412-1.465 1.472-.317 2.514-1.727 4.254-1.465 1.688.253 3.44.046 5.163.058 1.039.006 1.968.103 2.962.744 2.242 1.447 6.14-.743 7.386-2.219.223-.265.238-.722.335-1.094.26-.993.51-1.988.792-3.09-.317-.058-.708-.252-1.04-.175-2.172.5-4.334 1.047-6.493 1.603-.803.206-1.588.486-2.385.714-.8.23-1.607.435-2.41.653-.63.172-1.248.43-1.888.502-1.03.116-2.119-.11-2.938.838-.166.192-.536.335-.78.297-3-.478-5.726.938-8.602 1.295-.63.078-1.229.407-1.85.586-.715.206-1.431.463-2.163.54-1.393.15-2.879-.255-4.055.97-.217.225-.726.2-1.102.211-3.896.113-6.53 2.107-8.214 6.04l-3.936-.741c-2.046 1.097-4.676 2.55-7.355 3.898-.42.211-1.16.117-1.592-.132-1.642-.946-3.211-2.005-5.191-2.074-.314-.01-.677-.353-.913-.634-1.08-1.293-2.395-1.807-4.055-1.604-4.097.498-6.711-2.038-9.146-4.877-.693-.808-.565-1.581.177-2.323 1.301-1.3 2.518-2.697 3.886-3.915.512-.456 1.334-.673 2.04-.743 1.95-.195 3.875.124 5.801-.986 1.11-.64 2.811-.164 4.243-.243 1.579-.087 3.097.102 4.673-.861 1.085-.664 2.827-.47 4.219-.26 2.585.394 4.743-1.105 7.155-1.426.555-.074 1.077-.775 1.523-1.275 1.954-2.192 4.277-3.415 7.245-3.317.786.025 1.583-.449 2.379-.681.54-.158 1.079-.375 1.63-.423 1.128-.098 2.223.004 3.238-.856.496-.42 1.455-.342 2.206-.35 2.872-.03 5.746-.06 8.616.034.896.03 1.77.498 2.67.69a30.6 30.6 0 0 0 2.78.438c1.938.23 4.012-.52 5.781 1.01.355.308 1.11.156 1.682.161 1.915.017 3.833-.051 5.745.028 1.764.074 3.617-.431 5.209.987.404.36 1.294.181 1.96.182 7.853.007 15.705.024 23.557-.03.896-.006 1.789-.422 2.684-.648.633-.16 1.26-.405 1.902-.466 1.038-.098 1.964-.213 2.96-.799 1.216-.716 2.775-.742 4.09.086 1.965 1.235 3.976 2.207 6.366 1.914.28-.034.647-.073.845.074 2.225 1.654 4.775 1.023 7.192 1.033 12.449.053 24.898-.032 37.346.06 2.554.02 4.724-1.055 6.995-1.854 1.81-.637 3.502-1.088 4.968.527 1.016 1.12 2.2 1.411 3.599 1.31.857-.063 1.732-.081 2.58.029.526.068 1.26.269 1.483.661 1.081 1.902 2.776 3.158 4.775 4.686zm570.584 363.2c-2.149-1.814-3.911-3.568-5.93-4.911-1.28-.851-3.089-.846-4.393-1.673-1.48-.938-2.972-1.045-4.575-1.124-.719-.035-1.423-.367-2.136-.558-.712-.191-1.417-.482-2.14-.546-2.908-.256-3.649-1.034-3.627-4.01.004-.482.09-.962.15-1.554.61-.252 1.208-.499 1.884-.776-.104-.25-.145-.563-.318-.729-1.02-.978-1.862-2.078-3.317-2.626-1.06-.399-1.893-1.575-2.678-2.535-.275-.338-.107-1.06-.148-1.72 1.917-.486 3.74-.597 5.526-1.27 2.717-1.023 5.06.53 4.681 3.82-.464 4.024 1.602 6.784 4.284 9.284.82.767 1.422.82 2.493.374 3.355-1.4 4.992-4.17 6.072-7.567 2.21-.284 4.195-.444 6.28.839 2.525 1.552 5.618 1.922 8.14 3.604 2.724-.342 4.787 1.364 7.05 2.437.418.198.874.41 1.178.745 1.026 1.13 2.222 1.499 3.742 1.666 4.136.456 7.173 2.96 9.634 6.271.16.216.178.548.244.83.648 2.73.678 2.767 3.3 3.903.178 1.649.708 3.385-.913 4.823 1.272 1.243 2.044 2.797 3.816 3.098.173.028.341.17.481.295 3.114 2.787 6.234 5.566 9.323 8.381.692.632 1.51 1.299.794 2.851-3.607.224-7.358.8-10.942-1.408-1.703-1.049-3.29-2.166-4.687-3.63-.762-.8-1.803-1.315-2.696-1.989-.606-.457-1.212-.927-1.75-1.463-1.024-1.017-1.974-2.11-2.998-3.126-1.557-1.544-1.788-1.477-3.506-.005-1.347 1.152-2.76 2.239-4.244 3.187-.433.277-1.407.224-1.793-.103-.89-.754-1.589-.874-2.517-.138-1.104.877-2.247.79-3.41-.014-.444-.306-1.046-.564-1.557-.533-1.226.075-2.024-.657-2.644-1.478-1.293-1.713-2.872-2.398-4.949-2.101-.62.09-1.282-.136-1.99-.226-.345-1.271-.549-2.37.345-3.392.589-.674.683-1.503.085-2.124-1.097-1.14-.695-2.085.356-3.079zM329.841 61.273c-1.99-.534-3.505-2.782-6.026-1.73-.549 1.538-.348 2.857.941 3.913 1.124.92 1.42 2.198.894 3.426-.567 1.325-1.76 1.726-3.239 1.885-3.121.336-5.586-1.204-8.206-2.441-1.418-.67-2.962-1.067-4.346-1.796a59.936 59.936 0 0 1-5.514-3.32c-2.007-1.35-1.992-4.293.203-5.24 2.126-.916 3.944-2.56 6.402-2.765 1.488-.124 3.368-2.619 3.4-4.166.033-1.64-.017-3.169-.942-4.749-1.13-1.93-1.713-4.208-2.476-6.357-.61-1.722-1.763-2.33-3.496-2.294-1.753.036-3.634.46-5.123-1.027-3.448.063-6.62-2.535-10.433-.902-.131.339-.275 1.025-.628 1.568-1.37 2.115-3.977 2.172-5.076-.05a17.365 17.365 0 0 0-2.165-3.349c-.803-.984-.668-2.434.263-3.448 1.563-1.703 3.232-3.302 4.814-4.988.903-.963 1.71-1.086 2.645-.056.776.855 1.632 1.631 2.45 2.438.87-.286 1.715-.692 2.599-.822 1.108-.164 2.302.109 3.168-.926.056-.068.171-.139.247-.126 2.8.481 5.227-1.406 7.962-1.338 1.126.028 2.115.183 3.2.818 1.854 1.085 3.736 2.042 5.523 3.31 1.509 1.072 3.612 1.494 5.503 1.689 3.308.342 3.324.178 6.989 1.994l-.72 5.338c.904.894 2.214 2.17 3.502 3.468 1.512 1.524 2.465 3.355 2.815 5.523.075.468.232.936.428 1.367.992 2.186-.1 5.23-2.246 5.877-.498.15-1.164-.387-1.772-.51-.592-.12-1.208-.114-1.813-.164.037.625-.069 1.307.139 1.865.527 1.423 1.393 2.737 1.753 4.193.388 1.57.106 3.136-1.619 3.892zm628.055 291.452c-.592-.284-1.203-.528-1.764-.861-.561-.333-1.295-.633-1.57-1.155-1.452-2.759-3.026-5.494-4.073-8.416-.713-1.994-1.297-4.072-1.378-6.369-.128-3.697 3.027-4.944 5.878-3.44.543.287 1.16.434 2.05.756l.443-4.412c2.207-.447 2.814-2.336 3.22-4.146 1.02-4.548 2.92-6.316 7.418-6.804 2.685-.292 5.075-1.723 6.2-4.044 1.037-2.146 2.824-3.322 4.016-4.967 2.933.672 4.645 2.787 6.509 4.675 1.428 1.445 1.912 4.58 1.004 6.447-.828 1.703-1.686 3.395-2.625 5.036-.44.768-.457 1.374-.041 2.149.806 1.504 1.497 3.07 2.26 4.598 1.306 2.611.921 3.76-1.683 4.942-.252.114-.501.24-.843.403-.048.669-.207 1.35-.122 1.999.377 2.872-1.143 4.648-3.46 5.675-1.524.676-1.268 2.198-2.066 3.165 1.36 1.314-.254 2.26-.541 3.281-.295 1.049-1.308 1.859-2.663 1.823-1.918-.05-3.84-.012-5.76-.031-.379-.005-.852.032-1.122-.17-2.343-1.756-5.006-.691-7.515-.88-.57-.043-1.183.484-1.772.746zm-269.089 97.542c-1.158-1.963-2.333-3.832-3.371-5.777-.39-.73-.613-1.633-.651-2.47-.096-2.08.116-4.182-.084-6.248-.29-3 1.381-4.497 3.632-5.686.25-.133.512-.238.565-.263.506-1.349.955-2.506 1.369-3.677.128-.365.226-.764.228-1.148.022-3.276.031-6.552.01-9.827a3.919 3.919 0 0 0-.303-1.425c-.862-2.098-.877-2.092-.598-4.685 3.23-.583 6.028-2.396 8.92-3.976 2.403-1.312 4.822-2.638 7.054-4.226 1.027-.73 1.721-2.043 2.39-3.198 1.002-1.734 1.85-3.562 2.804-5.428 1.378.669 1.442 2.015 2.004 3.223 1.24 2.672.992 5.36 1.014 8.08.013 1.55.294 3.158-.928 4.508-.315.347-.189 1.138-.221 1.728-.079 1.456.257 3.01-.969 4.183.014 2.735-1.568 4.95-2.252 7.405-1.013 3.63-3.027 6.662-4.414 10.038-.727 1.774-2.018 3.365-1.678 5.484-1.616 2.7-.955 5.723-1.17 8.624-.103 1.372-1.075 2.29-2.196 2.403-1.318.134-2.368.683-3.412 1.322-2.465 1.51-5.09 1.38-7.743 1.036zM197.477 32.325c-1.05 0-1.813-.04-2.572.008-1.836.117-3.654.03-5.149-1.161-1.621-1.293-3.575-1.055-5.362-1.306-.63-.814-.596-1.524.066-2.123 1.043-.945 1.93-1.976 3.344-2.598 1.764-.777 3.343-2.085 4.827-3.368 1.62-1.403 3.36-1.512 4.996-.525 1.414.852 3.138 1.056 4.076.375 2.655-1.928 4.587-.26 6.44.962 2.429 1.604 4.463 3.802 6.871 5.443 1.842 1.255 3.702 2.963 6.391 1.099 1.005-.697 2.808-.424 4.222-.305 2.476.208 4.62-.518 6.755-1.674 1.376-.745 2.899-1.275 4.413-1.69 1.254-.345 3.032 1.84 2.26 2.83-1.176 1.508-.782 3.099-.857 4.68-.071 1.527-.015 3.06-.015 4.775-2.434.102-4.257 1.62-6.646 1.649-1.6.019-3.26.796-4.77 1.499-2.133.993-4.126 1.173-6.184-.101-.796-.493-1.65-.903-2.51-1.277-.326-.142-.788-.207-1.108-.088a70.273 70.273 0 0 0-4.377 1.772c-1.569.704-9.932.463-11.514-.325-1.347-.671-2.732-1.106-3.396-2.773-.606-1.52-1.458-2.841-.072-4.356.163-.179-.051-.704-.129-1.422zm738.449 325.697c.678 3.481-1.907 4.918-3.8 6.644-.792.722-2.094.572-3.031-.448-1.937-2.109-4.039-4.061-5.841-6.287-1.221-1.508-2.03-3.387-3.055-5.078-1.614-2.669-3.333-5.27-4.866-7.989-2.456-4.36-5.583-8.295-7.379-13.07-.134-.358-.253-.746-.474-1.037-1.716-2.258-3.486-4.47-5.17-6.754-.55-.744-.88-1.669-1.344-2.489-1.164-2.055-2.291-4.14-3.554-6.125-.462-.725-.878-1.396-.324-2.09.585-.732 1.28-.362 1.974.103.511.342 1.197.632 1.776.581 2.573-.224 3.784 1.535 4.938 3.508 1.047 1.789 1.979 3.722 3.323 5.23 1.417 1.588 3.233 2.793 4.942 4.065.4.298 1.091.32 1.617.24 1.48-.226 2.441.598 3.398 1.588 2.827 2.927 4.973 6.363 7.223 9.788 1.913 2.912 3.066 6.331 5.63 8.889 1.487 1.482 1.898 4.112 3.041 6.063.887 1.514 1.211 3.018.976 4.668zM182 239.19s2.546-6.383 13.68-6.383 13.624 4.201 20.282 8.229c6.657 4.027 10.545 9.088 2.153 9.088s-12.477 3.947-14.07-.907c-1.595-4.854-3.162-9.756-8.813-9.756-5.651 0-13.232-.271-13.232-.271zm44.145 6.97s3.092-2.705 8.98.064c5.887 2.77 9.008 6.574 5.036 11.112-3.972 4.537-13.933 2.498-21.038-.335-7.106-2.833 2.154-4.203 7.105-4.203 4.95 0-.083-6.637-.083-6.637zM462.503 47.89s6.883-3.136 12.73-1.226c5.845 1.91 1.734 5.72-5.847 9.55-7.58 3.83-13.15 3.072-17.905-.414-4.756-3.486-7.804-5.666-3.469-8.643 4.336-2.976 14.491.733 14.491.733z" fill="url(#b)" mask="url(#c)"/><g mask="url(#c)"><g transform="translate(46.202 95.233)"><use fill="url(#d)" xlink:href="#e"/><use fill="#000" filter="url(#f)" xlink:href="#e"/><g transform="translate(14.642 16.388)"><mask id="h" fill="#fff"><use xlink:href="#g"/></mask><g mask="url(#h)" fill="#FFF"><g transform="translate(7.156 7.38)"><circle cx="19" cy="10" r="10"/><ellipse cx="18.5" cy="39.5" rx="18.5" ry="18"/></g></g></g><ellipse stroke="#FFF" stroke-width="2" cx="39.69" cy="41.349" rx="27.322" ry="27.224"/></g><g transform="translate(166.202 157)"><use fill="url(#i)" xlink:href="#j"/><use fill="#000" filter="url(#k)" xlink:href="#j"/><g transform="translate(14.642 16.388)"><mask id="m" fill="#fff"><use xlink:href="#l"/></mask><g mask="url(#m)" fill="#FFF"><g transform="translate(7.156 7.38)"><circle cx="19" cy="10" r="10"/><ellipse cx="18.5" cy="39.5" rx="18.5" ry="18"/></g></g></g><ellipse stroke="#FFF" stroke-width="2" cx="39.69" cy="41.349" rx="27.322" ry="27.224"/></g><g transform="translate(179.202 6)"><use fill="url(#i)" xlink:href="#n"/><use fill="#000" filter="url(#o)" xlink:href="#n"/><g transform="translate(14.642 16.388)"><mask id="q" fill="#fff"><use xlink:href="#p"/></mask><g mask="url(#q)" fill="#FFF"><g transform="translate(7.156 7.38)"><circle cx="19" cy="10" r="10"/><ellipse cx="18.5" cy="39.5" rx="18.5" ry="18"/></g></g></g><ellipse stroke="#FFF" stroke-width="2" cx="39.69" cy="41.349" rx="27.322" ry="27.224"/></g><g transform="translate(372.202 -29)"><use fill="url(#d)" xlink:href="#r"/><use fill="#000" filter="url(#s)" xlink:href="#r"/><g transform="translate(14.642 16.388)"><mask id="u" fill="#fff"><use xlink:href="#t"/></mask><g mask="url(#u)" fill="#FFF"><g transform="translate(7.156 7.38)"><circle cx="19" cy="10" r="10"/><ellipse cx="18.5" cy="39.5" rx="18.5" ry="18"/></g></g></g><ellipse stroke="#FFF" stroke-width="2" cx="39.69" cy="41.349" rx="27.322" ry="27.224"/></g><g transform="translate(459.202 110)"><use fill="url(#i)" xlink:href="#v"/><use fill="#000" filter="url(#w)" xlink:href="#v"/><g transform="translate(14.642 16.388)"><mask id="y" fill="#fff"><use xlink:href="#x"/></mask><g mask="url(#y)" fill="#FFF"><g transform="translate(7.156 7.38)"><circle cx="19" cy="10" r="10"/><ellipse cx="18.5" cy="39.5" rx="18.5" ry="18"/></g></g></g><ellipse stroke="#FFF" stroke-width="2" cx="39.69" cy="41.349" rx="27.322" ry="27.224"/></g><g transform="translate(518.202 290)"><use fill="url(#d)" xlink:href="#z"/><use fill="#000" filter="url(#A)" xlink:href="#z"/><g transform="translate(14.642 16.388)"><mask id="C" fill="#fff"><use xlink:href="#B"/></mask><g mask="url(#C)" fill="#FFF"><g transform="translate(7.156 7.38)"><circle cx="19" cy="10" r="10"/><ellipse cx="18.5" cy="39.5" rx="18.5" ry="18"/></g></g></g><ellipse stroke="#FFF" stroke-width="2" cx="39.69" cy="41.349" rx="27.322" ry="27.224"/></g><g transform="translate(249.202 332)"><use fill="url(#d)" xlink:href="#D"/><use fill="#000" filter="url(#E)" xlink:href="#D"/><g transform="translate(14.642 16.388)"><mask id="G" fill="#fff"><use xlink:href="#F"/></mask><g mask="url(#G)" fill="#FFF"><g transform="translate(7.156 7.38)"><circle cx="19" cy="10" r="10"/><ellipse cx="18.5" cy="39.5" rx="18.5" ry="18"/></g></g></g><ellipse stroke="#FFF" stroke-width="2" cx="39.69" cy="41.349" rx="27.322" ry="27.224"/></g><g transform="translate(618.202 310)"><use fill="url(#i)" xlink:href="#H"/><use fill="#000" filter="url(#I)" xlink:href="#H"/><g transform="translate(14.642 16.388)"><mask id="K" fill="#fff"><use xlink:href="#J"/></mask><g mask="url(#K)" fill="#FFF"><g transform="translate(7.156 7.38)"><circle cx="19" cy="10" r="10"/><ellipse cx="18.5" cy="39.5" rx="18.5" ry="18"/></g></g></g><ellipse stroke="#FFF" stroke-width="2" cx="39.69" cy="41.349" rx="27.322" ry="27.224"/></g><g transform="translate(699.202 133)"><use fill="url(#d)" xlink:href="#L"/><use fill="#000" filter="url(#M)" xlink:href="#L"/><g transform="translate(14.642 16.388)"><mask id="O" fill="#fff"><use xlink:href="#N"/></mask><g mask="url(#O)" fill="#FFF"><g transform="translate(7.156 7.38)"><circle cx="19" cy="10" r="10"/><ellipse cx="18.5" cy="39.5" rx="18.5" ry="18"/></g></g></g><ellipse stroke="#FFF" stroke-width="2" cx="39.69" cy="41.349" rx="27.322" ry="27.224"/></g><g transform="translate(310.202 369)"><use fill="url(#i)" xlink:href="#P"/><use fill="#000" filter="url(#Q)" xlink:href="#P"/><g transform="translate(14.642 16.388)"><mask id="S" fill="#fff"><use xlink:href="#R"/></mask><g mask="url(#S)" fill="#FFF"><g transform="translate(7.156 7.38)"><circle cx="19" cy="10" r="10"/><ellipse cx="18.5" cy="39.5" rx="18.5" ry="18"/></g></g></g><ellipse stroke="#FFF" stroke-width="2" cx="39.69" cy="41.349" rx="27.322" ry="27.224"/></g></g></g></svg>